<svg xmlns="http://www.w3.org/2000/svg" xmlns:xlink="http://www.w3.org/1999/xlink" width="110" zoomAndPan="magnify" viewBox="0 0 82.5 41.25" height="55" preserveAspectRatio="xMidYMid meet" version="1.0"><path fill="#ffffff" d="M 8.703125 1.566406 L 9.875 1.566406 L 9.875 13.226562 L 13.578125 13.226562 L 13.578125 14.316406 L 8.703125 14.316406 Z M 8.703125 1.566406 " fill-opacity="1" fill-rule="nonzero"/><path fill="#ffffff" d="M 15.003906 13.640625 C 14.007812 12.660156 13.921875 10.769531 13.921875 7.933594 C 13.921875 5.160156 13.988281 3.300781 14.921875 2.289062 C 15.421875 1.753906 16.179688 1.445312 17.261719 1.445312 C 18.34375 1.445312 19.101562 1.753906 19.601562 2.289062 C 20.53125 3.285156 20.617188 5.164062 20.617188 7.933594 C 20.617188 10.785156 20.53125 12.679688 19.535156 13.660156 C 19.035156 14.140625 18.292969 14.398438 17.261719 14.398438 C 16.242188 14.398438 15.503906 14.140625 15.003906 13.640625 Z M 19.429688 7.964844 C 19.429688 4.109375 19.257812 2.5625 17.261719 2.5625 C 15.28125 2.5625 15.09375 4.109375 15.09375 7.964844 C 15.09375 11.800781 15.28125 13.316406 17.261719 13.316406 C 19.257812 13.316406 19.429688 11.800781 19.429688 7.964844 Z M 19.429688 7.964844 " fill-opacity="1" fill-rule="nonzero"/><path fill="#ffffff" d="M 24.28125 1.566406 L 26.777344 1.566406 C 28.050781 1.566406 28.894531 1.855469 29.425781 2.425781 C 30.304688 3.371094 30.375 5.109375 30.375 7.933594 C 30.375 10.90625 30.304688 12.660156 29.34375 13.539062 C 28.808594 14.054688 27.980469 14.316406 26.761719 14.316406 L 24.28125 14.316406 Z M 26.792969 13.28125 C 29.050781 13.28125 29.1875 12.09375 29.1875 7.945312 C 29.1875 3.871094 29.050781 2.648438 26.777344 2.648438 L 25.453125 2.648438 L 25.453125 13.28125 Z M 26.792969 13.28125 " fill-opacity="1" fill-rule="nonzero"/><path fill="#ffffff" d="M 31.734375 1.566406 L 36.691406 1.566406 L 36.691406 2.667969 L 32.90625 2.667969 L 32.90625 7.210938 L 36.519531 7.210938 L 36.519531 8.308594 L 32.90625 8.308594 L 32.90625 13.230469 L 36.691406 13.230469 L 36.691406 14.316406 L 31.734375 14.316406 Z M 31.734375 1.566406 " fill-opacity="1" fill-rule="nonzero"/><path fill="#ffffff" d="M 5.542969 34.425781 L 6.769531 34.425781 C 8.34375 34.425781 8.734375 33.722656 8.734375 32.464844 L 8.734375 16.703125 L 10.511719 16.703125 L 10.511719 32.597656 C 10.511719 34.980469 9.542969 36.074219 7.058594 36.074219 L 5.539062 36.074219 L 5.539062 34.425781 Z M 5.542969 34.425781 " fill-opacity="1" fill-rule="nonzero"/><path fill="#ffffff" d="M 14.171875 35.054688 C 12.65625 33.5625 12.527344 30.6875 12.527344 26.375 C 12.527344 22.164062 12.628906 19.34375 14.042969 17.800781 C 14.800781 16.988281 15.949219 16.519531 17.597656 16.519531 C 19.246094 16.519531 20.394531 16.988281 21.152344 17.800781 C 22.566406 19.316406 22.699219 22.164062 22.699219 26.375 C 22.699219 30.714844 22.566406 33.589844 21.050781 35.082031 C 20.289062 35.8125 19.167969 36.207031 17.597656 36.207031 C 16.054688 36.207031 14.929688 35.8125 14.171875 35.054688 Z M 20.894531 26.429688 C 20.894531 20.574219 20.632812 18.21875 17.597656 18.21875 C 14.59375 18.21875 14.304688 20.570312 14.304688 26.429688 C 14.304688 32.257812 14.59375 34.558594 17.597656 34.558594 C 20.632812 34.558594 20.894531 32.257812 20.894531 26.429688 Z M 20.894531 26.429688 " fill-opacity="1" fill-rule="nonzero"/><path fill="#ffffff" d="M 29.054688 27.867188 C 28.921875 27.890625 28.792969 27.890625 28.660156 27.890625 L 26.542969 27.890625 L 26.542969 36.074219 L 24.789062 36.074219 L 24.789062 16.703125 L 28.605469 16.703125 C 32.425781 16.703125 33.523438 18.324219 33.523438 22.195312 C 33.523438 25.09375 32.871094 26.871094 30.726562 27.550781 L 33.339844 36.074219 L 31.535156 36.074219 Z M 28.632812 26.269531 C 31.167969 26.269531 31.769531 25.148438 31.769531 22.269531 C 31.769531 19.394531 31.167969 18.347656 28.605469 18.347656 L 26.539062 18.347656 L 26.539062 26.269531 Z M 28.632812 26.269531 " fill-opacity="1" fill-rule="nonzero"/><path fill="#ffffff" d="M 36.816406 35.265625 C 35.171875 33.800781 35.089844 30.558594 35.089844 26.375 C 35.089844 22.035156 35.273438 19.238281 36.660156 17.75 C 37.421875 16.992188 38.492188 16.546875 40.140625 16.546875 C 41.789062 16.546875 43.09375 16.914062 43.851562 17.253906 L 43.121094 18.820312 C 42.441406 18.507812 41.449219 18.246094 40.246094 18.246094 C 37.238281 18.246094 36.84375 20.417969 36.84375 26.425781 C 36.84375 32.28125 37.15625 34.609375 39.878906 34.609375 C 42.285156 34.609375 42.652344 33.300781 42.652344 28.152344 L 42.652344 26.84375 L 39.304688 26.84375 L 39.304688 25.199219 L 44.40625 25.199219 L 44.40625 27.8125 C 44.40625 32.019531 44.089844 34.21875 42.941406 35.289062 C 42.257812 35.945312 41.242188 36.207031 39.828125 36.207031 C 38.492188 36.207031 37.523438 35.917969 36.816406 35.265625 Z M 36.816406 35.265625 " fill-opacity="1" fill-rule="nonzero"/><path fill="#ffffff" d="M 46.339844 16.703125 L 53.871094 16.703125 L 53.871094 18.375 L 48.117188 18.375 L 48.117188 25.277344 L 53.605469 25.277344 L 53.605469 26.953125 L 48.117188 26.953125 L 48.117188 34.425781 L 53.871094 34.425781 L 53.871094 36.074219 L 46.339844 36.074219 Z M 46.339844 16.703125 " fill-opacity="1" fill-rule="nonzero"/><path fill="#ffffff" d="M 78.214844 39.363281 L 73.726562 39.363281 L 73.726562 2.148438 C 69.5 6.269531 69.496094 21.597656 69.523438 24.085938 L 72.21875 24.085938 L 72.21875 27.21875 L 70.992188 27.21875 L 70.992188 39.367188 L 65.152344 39.367188 L 65.152344 26.550781 L 64.425781 26.550781 L 64.402344 26.199219 L 64.441406 19.617188 C 64.386719 19.402344 64.316406 18.816406 64.945312 18.132812 C 65.527344 17.503906 65.628906 17.394531 65.683594 15.722656 C 65.71875 14.40625 65.796875 7.5625 65.832031 3.984375 C 65.480469 5.703125 65.109375 8.855469 65.105469 14.535156 C 65.101562 14.761719 65.042969 16.695312 63.804688 16.695312 C 63.804688 16.695312 63.800781 16.695312 63.800781 16.695312 C 63.53125 16.695312 63.285156 16.59375 63.09375 16.398438 C 62.539062 15.839844 62.527344 14.664062 62.53125 14.53125 C 62.535156 8.9375 62.191406 5.792969 61.855469 4.058594 C 61.882812 7.652344 61.9375 14.40625 61.972656 15.710938 C 62.019531 17.382812 62.121094 17.496094 62.691406 18.113281 C 63.332031 18.808594 63.261719 19.398438 63.203125 19.609375 L 63.179688 26.523438 L 62.539062 26.542969 L 62.539062 39.359375 L 4.753906 39.359375 L 4.753906 38.664062 L 61.835938 38.664062 L 61.835938 25.847656 L 62.476562 25.847656 L 62.527344 19.425781 C 62.527344 19.421875 62.632812 19.085938 62.183594 18.601562 C 61.488281 17.839844 61.320312 17.59375 61.273438 15.730469 C 61.222656 13.9375 61.136719 1.929688 61.132812 1.808594 L 61.128906 0.898438 L 61.742188 1.570312 C 61.894531 1.738281 63.238281 3.523438 63.226562 14.535156 C 63.226562 14.925781 63.320312 15.640625 63.585938 15.90625 C 63.652344 15.972656 63.722656 15.988281 63.800781 16 C 64.238281 16 64.398438 14.992188 64.402344 14.53125 C 64.417969 3.527344 65.789062 1.738281 65.949219 1.574219 L 66.5625 0.917969 L 66.554688 1.816406 C 66.550781 1.9375 66.433594 13.945312 66.382812 15.742188 C 66.324219 17.605469 66.160156 17.851562 65.46875 18.597656 C 65.015625 19.09375 65.117188 19.429688 65.121094 19.445312 L 65.144531 19.566406 L 65.105469 25.851562 L 65.855469 25.851562 L 65.855469 38.667969 L 70.292969 38.667969 L 70.292969 26.519531 L 71.519531 26.519531 L 71.519531 24.78125 L 68.835938 24.78125 L 68.828125 24.441406 C 68.808594 23.644531 68.414062 4.875 73.882812 1.121094 L 74.429688 0.742188 L 74.429688 38.664062 L 78.214844 38.664062 Z M 78.214844 39.363281 " fill-opacity="1" fill-rule="nonzero"/></svg>