<svg xmlns="http://www.w3.org/2000/svg" xmlns:xlink="http://www.w3.org/1999/xlink" width="195" zoomAndPan="magnify" viewBox="0 0 146.25 37.5" height="50" preserveAspectRatio="xMidYMid meet" version="1.0"><defs><clipPath id="59cf4449ae"><path d="M 1.167969 9.269531 L 12.304688 9.269531 L 12.304688 24.164062 L 1.167969 24.164062 Z M 1.167969 9.269531 " clip-rule="nonzero"/></clipPath><clipPath id="2bb63430f9"><path d="M 76 14.101562 L 85.902344 14.101562 L 85.902344 27.960938 L 76 27.960938 Z M 76 14.101562 " clip-rule="nonzero"/></clipPath><clipPath id="f171612535"><path d="M 137.808594 12.179688 L 144.917969 12.179688 L 144.917969 24.675781 L 137.808594 24.675781 Z M 137.808594 12.179688 " clip-rule="nonzero"/></clipPath></defs><g clip-path="url(#59cf4449ae)"><path fill="#ffffff" d="M 10.449219 16.757812 C 11.984375 17.660156 12.558594 19.390625 12.1875 21.070312 C 11.925781 22.234375 11.207031 23.136719 10.125 23.652344 C 9.28125 24.050781 8.417969 24.175781 7.488281 24.179688 C 6.414062 24.183594 5.347656 24.183594 4.289062 24.183594 C 4.257812 24.183594 4.234375 24.175781 4.210938 24.15625 L 1.210938 21.621094 C 1.199219 21.613281 1.191406 21.601562 1.183594 21.585938 C 1.179688 21.574219 1.175781 21.558594 1.175781 21.546875 L 1.175781 19.257812 C 1.171875 19.222656 1.1875 19.214844 1.214844 19.234375 L 4.210938 21.664062 C 4.234375 21.683594 4.257812 21.695312 4.289062 21.695312 C 5.191406 21.695312 6.097656 21.695312 7.015625 21.695312 C 8.246094 21.691406 9.222656 21.148438 9.207031 19.789062 C 9.191406 18.597656 8.292969 17.980469 7.175781 17.980469 C 6.472656 17.976562 5.761719 17.980469 5.054688 17.980469 C 4.789062 17.980469 4.527344 17.976562 4.261719 17.96875 C 4.25 17.96875 4.238281 17.964844 4.226562 17.957031 L 1.214844 15.507812 C 1.203125 15.496094 1.191406 15.484375 1.183594 15.46875 C 1.175781 15.457031 1.175781 15.445312 1.175781 15.425781 L 1.175781 13.179688 C 1.175781 13.148438 1.1875 13.144531 1.21875 13.167969 L 4.222656 15.464844 C 4.234375 15.472656 4.25 15.480469 4.257812 15.484375 C 4.273438 15.488281 4.289062 15.488281 4.300781 15.488281 C 4.5 15.464844 4.753906 15.488281 4.890625 15.488281 C 5.789062 15.484375 6.558594 15.480469 7.207031 15.46875 C 8.074219 15.457031 8.941406 15.042969 9.152344 14.128906 C 9.347656 13.265625 9.050781 12.320312 8.191406 11.964844 C 7.820312 11.804688 7.449219 11.761719 7.011719 11.761719 C 6.105469 11.757812 5.195312 11.757812 4.265625 11.757812 C 4.261719 11.757812 4.261719 11.757812 4.257812 11.761719 C 4.257812 11.761719 4.253906 11.765625 4.25 11.769531 C 4.25 11.769531 4.246094 11.773438 4.246094 11.777344 C 4.246094 11.777344 4.242188 11.78125 4.242188 11.785156 L 4.242188 13.078125 C 4.242188 13.117188 4.226562 13.125 4.191406 13.097656 L 1.199219 10.875 C 1.191406 10.871094 1.1875 10.863281 1.183594 10.855469 C 1.179688 10.847656 1.175781 10.835938 1.175781 10.828125 L 1.171875 9.308594 C 1.171875 9.304688 1.171875 9.296875 1.171875 9.292969 C 1.175781 9.285156 1.179688 9.28125 1.183594 9.277344 C 1.1875 9.273438 1.191406 9.269531 1.195312 9.265625 C 1.203125 9.265625 1.207031 9.261719 1.210938 9.261719 C 3.386719 9.265625 5.558594 9.265625 7.730469 9.265625 C 8.152344 9.265625 8.621094 9.324219 9.140625 9.445312 C 11.074219 9.890625 12.316406 11.386719 12.285156 13.402344 C 12.265625 14.832031 11.652344 15.933594 10.449219 16.703125 C 10.449219 16.703125 10.449219 16.707031 10.445312 16.707031 C 10.445312 16.710938 10.441406 16.710938 10.441406 16.710938 C 10.4375 16.714844 10.4375 16.714844 10.4375 16.71875 C 10.4375 16.722656 10.4375 16.722656 10.4375 16.726562 C 10.4375 16.730469 10.4375 16.734375 10.4375 16.734375 C 10.4375 16.738281 10.4375 16.742188 10.441406 16.742188 C 10.441406 16.746094 10.445312 16.75 10.445312 16.75 C 10.449219 16.753906 10.449219 16.753906 10.449219 16.757812 Z M 10.449219 16.757812 " fill-opacity="1" fill-rule="nonzero"/></g><path fill="#ffffff" d="M 18.332031 14.808594 C 19.949219 14.808594 21.167969 15.308594 21.980469 16.308594 C 22.796875 17.304688 23.152344 18.675781 23.046875 20.417969 L 16.476562 20.417969 C 16.628906 20.976562 16.890625 21.40625 17.273438 21.707031 C 17.65625 22.011719 18.121094 22.160156 18.675781 22.160156 C 19.535156 22.160156 20.28125 21.839844 20.914062 21.203125 L 22.496094 22.753906 C 21.488281 23.859375 20.128906 24.410156 18.417969 24.410156 C 16.90625 24.410156 15.695312 23.972656 14.800781 23.101562 C 13.90625 22.230469 13.457031 21.074219 13.457031 19.632812 C 13.457031 18.183594 13.90625 17.015625 14.800781 16.132812 C 15.695312 15.253906 16.875 14.808594 18.332031 14.808594 Z M 16.425781 18.800781 L 20.171875 18.800781 C 20.171875 18.230469 20.007812 17.773438 19.675781 17.421875 C 19.347656 17.074219 18.910156 16.902344 18.367188 16.902344 C 17.859375 16.902344 17.429688 17.074219 17.082031 17.414062 C 16.734375 17.757812 16.515625 18.21875 16.425781 18.800781 Z M 16.425781 18.800781 " fill-opacity="1" fill-rule="nonzero"/><path fill="#ffffff" d="M 42.058594 24.304688 L 39.335938 24.304688 L 39.316406 16.378906 L 36.402344 23.085938 L 34.390625 23.085938 L 31.476562 16.378906 L 31.476562 24.304688 L 28.722656 24.304688 L 28.722656 12.089844 L 32.105469 12.089844 L 35.398438 19.355469 L 38.691406 12.089844 L 42.058594 12.089844 Z M 42.058594 24.304688 " fill-opacity="1" fill-rule="nonzero"/><path fill="#ffffff" d="M 48.683594 14.773438 C 49.96875 14.773438 50.964844 15.074219 51.675781 15.671875 C 52.386719 16.269531 52.746094 17.101562 52.757812 18.171875 L 52.757812 24.304688 L 49.828125 24.304688 L 49.828125 23.222656 C 49.21875 24.039062 48.261719 24.445312 46.96875 24.445312 C 45.984375 24.445312 45.203125 24.167969 44.625 23.625 C 44.046875 23.078125 43.757812 22.371094 43.757812 21.5 C 43.757812 20.605469 44.066406 19.910156 44.6875 19.417969 C 45.304688 18.925781 46.191406 18.671875 47.347656 18.660156 L 49.8125 18.660156 L 49.8125 18.519531 C 49.8125 18.058594 49.65625 17.691406 49.351562 17.433594 C 49.042969 17.171875 48.589844 17.039062 47.988281 17.039062 C 47.144531 17.039062 46.214844 17.300781 45.195312 17.824219 L 44.347656 15.839844 C 45.859375 15.128906 47.304688 14.773438 48.683594 14.773438 Z M 47.882812 22.40625 C 48.363281 22.40625 48.773438 22.285156 49.136719 22.046875 C 49.492188 21.8125 49.71875 21.5 49.8125 21.117188 L 49.8125 20.28125 L 47.921875 20.28125 C 47.015625 20.28125 46.566406 20.617188 46.566406 21.289062 C 46.566406 21.640625 46.683594 21.914062 46.914062 22.109375 C 47.144531 22.308594 47.472656 22.40625 47.882812 22.40625 Z M 47.882812 22.40625 " fill-opacity="1" fill-rule="nonzero"/><path fill="#ffffff" d="M 61.015625 14.773438 C 62.042969 14.773438 62.875 15.101562 63.496094 15.757812 C 64.121094 16.417969 64.429688 17.289062 64.429688 18.378906 L 64.429688 24.304688 L 61.449219 24.304688 L 61.449219 19.21875 C 61.449219 18.671875 61.304688 18.238281 61.007812 17.917969 C 60.714844 17.597656 60.308594 17.441406 59.800781 17.441406 C 59.269531 17.441406 58.832031 17.613281 58.492188 17.964844 C 58.148438 18.3125 57.949219 18.769531 57.894531 19.339844 L 57.894531 24.304688 L 54.894531 24.304688 L 54.894531 14.914062 L 57.894531 14.914062 L 57.894531 16.445312 C 58.550781 15.355469 59.59375 14.796875 61.015625 14.773438 Z M 61.015625 14.773438 " fill-opacity="1" fill-rule="nonzero"/><path fill="#ffffff" d="M 70.765625 14.773438 C 72.046875 14.773438 73.042969 15.074219 73.753906 15.671875 C 74.46875 16.269531 74.828125 17.101562 74.839844 18.171875 L 74.839844 24.304688 L 71.90625 24.304688 L 71.90625 23.222656 C 71.292969 24.039062 70.339844 24.445312 69.046875 24.445312 C 68.0625 24.445312 67.28125 24.167969 66.703125 23.625 C 66.125 23.078125 65.839844 22.371094 65.839844 21.5 C 65.839844 20.605469 66.148438 19.910156 66.765625 19.417969 C 67.382812 18.925781 68.273438 18.671875 69.429688 18.660156 L 71.890625 18.660156 L 71.890625 18.519531 C 71.890625 18.058594 71.738281 17.691406 71.429688 17.433594 C 71.125 17.171875 70.671875 17.039062 70.070312 17.039062 C 69.226562 17.039062 68.292969 17.300781 67.277344 17.824219 L 66.429688 15.839844 C 67.941406 15.128906 69.386719 14.773438 70.765625 14.773438 Z M 69.964844 22.40625 C 70.4375 22.40625 70.855469 22.285156 71.210938 22.046875 C 71.574219 21.8125 71.796875 21.5 71.890625 21.117188 L 71.890625 20.28125 L 70 20.28125 C 69.097656 20.28125 68.648438 20.617188 68.648438 21.289062 C 68.648438 21.640625 68.765625 21.914062 68.992188 22.109375 C 69.226562 22.308594 69.550781 22.40625 69.964844 22.40625 Z M 69.964844 22.40625 " fill-opacity="1" fill-rule="nonzero"/><g clip-path="url(#2bb63430f9)"><path fill="#ffffff" d="M 85.902344 14.914062 L 85.902344 23.449219 C 85.902344 24.773438 85.4375 25.828125 84.507812 26.621094 C 83.574219 27.410156 82.355469 27.804688 80.839844 27.804688 C 79.292969 27.804688 77.902344 27.394531 76.679688 26.570312 L 77.71875 24.53125 C 78.621094 25.15625 79.585938 25.472656 80.613281 25.472656 C 81.332031 25.472656 81.894531 25.296875 82.308594 24.945312 C 82.714844 24.601562 82.921875 24.128906 82.921875 23.539062 L 82.921875 22.542969 C 82.285156 23.382812 81.390625 23.796875 80.234375 23.796875 C 79.039062 23.796875 78.074219 23.382812 77.328125 22.542969 C 76.582031 21.710938 76.210938 20.609375 76.210938 19.25 C 76.210938 17.929688 76.574219 16.855469 77.300781 16.035156 C 78.03125 15.21875 78.984375 14.808594 80.164062 14.808594 C 81.351562 14.796875 82.273438 15.214844 82.921875 16.0625 L 82.921875 14.914062 Z M 80.976562 21.621094 C 81.554688 21.621094 82.027344 21.410156 82.382812 20.984375 C 82.742188 20.5625 82.921875 20.011719 82.921875 19.339844 C 82.921875 18.652344 82.742188 18.097656 82.382812 17.675781 C 82.027344 17.253906 81.554688 17.039062 80.976562 17.039062 C 80.386719 17.039062 79.910156 17.253906 79.546875 17.675781 C 79.183594 18.097656 79.003906 18.652344 79.003906 19.339844 C 79.003906 20.011719 79.183594 20.5625 79.546875 20.984375 C 79.910156 21.410156 80.386719 21.621094 80.976562 21.621094 Z M 80.976562 21.621094 " fill-opacity="1" fill-rule="nonzero"/></g><path fill="#ffffff" d="M 92.285156 14.808594 C 93.90625 14.808594 95.121094 15.308594 95.941406 16.308594 C 96.753906 17.304688 97.109375 18.675781 97.007812 20.417969 L 90.433594 20.417969 C 90.582031 20.976562 90.847656 21.40625 91.226562 21.707031 C 91.609375 22.011719 92.082031 22.160156 92.636719 22.160156 C 93.488281 22.160156 94.234375 21.839844 94.875 21.203125 L 96.449219 22.753906 C 95.445312 23.859375 94.085938 24.410156 92.375 24.410156 C 90.859375 24.410156 89.65625 23.972656 88.757812 23.101562 C 87.859375 22.230469 87.414062 21.074219 87.414062 19.632812 C 87.414062 18.183594 87.859375 17.015625 88.757812 16.132812 C 89.65625 15.253906 90.828125 14.808594 92.285156 14.808594 Z M 90.378906 18.800781 L 94.125 18.800781 C 94.125 18.230469 93.960938 17.773438 93.632812 17.421875 C 93.300781 17.074219 92.863281 16.902344 92.320312 16.902344 C 91.8125 16.902344 91.386719 17.074219 91.039062 17.414062 C 90.691406 17.757812 90.472656 18.21875 90.378906 18.800781 Z M 90.378906 18.800781 " fill-opacity="1" fill-rule="nonzero"/><path fill="#ffffff" d="M 111.125 14.773438 C 112.152344 14.773438 112.972656 15.101562 113.578125 15.757812 C 114.183594 16.417969 114.488281 17.289062 114.488281 18.378906 L 114.488281 24.304688 L 111.507812 24.304688 L 111.507812 19.21875 C 111.507812 18.660156 111.359375 18.222656 111.070312 17.902344 C 110.78125 17.582031 110.386719 17.421875 109.890625 17.421875 C 109.335938 17.433594 108.894531 17.648438 108.566406 18.058594 C 108.238281 18.46875 108.070312 19.003906 108.070312 19.652344 L 108.070312 24.304688 L 105.070312 24.304688 L 105.070312 19.21875 C 105.070312 18.660156 104.929688 18.222656 104.644531 17.902344 C 104.363281 17.582031 103.972656 17.421875 103.476562 17.421875 C 102.910156 17.433594 102.457031 17.648438 102.121094 18.066406 C 101.785156 18.484375 101.617188 19.015625 101.617188 19.652344 L 101.617188 24.304688 L 98.636719 24.304688 L 98.636719 14.914062 L 101.617188 14.914062 L 101.617188 16.464844 C 102.253906 15.359375 103.285156 14.796875 104.707031 14.773438 C 105.457031 14.773438 106.109375 14.964844 106.65625 15.34375 C 107.207031 15.71875 107.597656 16.238281 107.828125 16.902344 C 108.4375 15.507812 109.539062 14.796875 111.125 14.773438 Z M 111.125 14.773438 " fill-opacity="1" fill-rule="nonzero"/><path fill="#ffffff" d="M 120.714844 14.808594 C 122.335938 14.808594 123.550781 15.308594 124.367188 16.308594 C 125.179688 17.304688 125.539062 18.675781 125.433594 20.417969 L 118.859375 20.417969 C 119.007812 20.976562 119.273438 21.40625 119.65625 21.707031 C 120.039062 22.011719 120.507812 22.160156 121.0625 22.160156 C 121.917969 22.160156 122.660156 21.839844 123.300781 21.203125 L 124.878906 22.753906 C 123.871094 23.859375 122.511719 24.410156 120.804688 24.410156 C 119.285156 24.410156 118.082031 23.972656 117.183594 23.101562 C 116.289062 22.230469 115.839844 21.074219 115.839844 19.632812 C 115.839844 18.183594 116.289062 17.015625 117.183594 16.132812 C 118.082031 15.253906 119.257812 14.808594 120.714844 14.808594 Z M 118.804688 18.800781 L 122.554688 18.800781 C 122.554688 18.230469 122.386719 17.773438 122.058594 17.421875 C 121.730469 17.074219 121.292969 16.902344 120.75 16.902344 C 120.238281 16.902344 119.8125 17.074219 119.464844 17.414062 C 119.121094 17.757812 118.898438 18.21875 118.804688 18.800781 Z M 118.804688 18.800781 " fill-opacity="1" fill-rule="nonzero"/><path fill="#ffffff" d="M 133.1875 14.773438 C 134.214844 14.773438 135.039062 15.101562 135.664062 15.757812 C 136.292969 16.417969 136.601562 17.289062 136.601562 18.378906 L 136.601562 24.304688 L 133.617188 24.304688 L 133.617188 19.21875 C 133.617188 18.671875 133.472656 18.238281 133.179688 17.917969 C 132.882812 17.597656 132.480469 17.441406 131.96875 17.441406 C 131.441406 17.441406 131.003906 17.613281 130.664062 17.964844 C 130.320312 18.3125 130.121094 18.769531 130.0625 19.339844 L 130.0625 24.304688 L 127.0625 24.304688 L 127.0625 14.914062 L 130.0625 14.914062 L 130.0625 16.445312 C 130.722656 15.355469 131.761719 14.796875 133.1875 14.773438 Z M 133.1875 14.773438 " fill-opacity="1" fill-rule="nonzero"/><g clip-path="url(#f171612535)"><path fill="#ffffff" d="M 144.183594 21.707031 L 144.773438 23.796875 C 144.042969 24.230469 143.210938 24.445312 142.273438 24.445312 C 141.347656 24.445312 140.601562 24.183594 140.027344 23.667969 C 139.457031 23.152344 139.171875 22.417969 139.171875 21.464844 L 139.171875 17.316406 L 137.867188 17.316406 L 137.867188 15.351562 L 139.171875 15.351562 L 139.171875 12.738281 L 142.152344 12.738281 L 142.152344 15.332031 L 144.597656 15.332031 L 144.597656 17.316406 L 142.152344 17.316406 L 142.152344 20.992188 C 142.152344 21.351562 142.222656 21.621094 142.371094 21.785156 C 142.511719 21.953125 142.730469 22.03125 143.019531 22.023438 C 143.296875 22.023438 143.683594 21.917969 144.183594 21.707031 Z M 144.183594 21.707031 " fill-opacity="1" fill-rule="nonzero"/></g></svg>