<svg xmlns="http://www.w3.org/2000/svg" xmlns:xlink="http://www.w3.org/1999/xlink" width="160" zoomAndPan="magnify" viewBox="0 0 120 37.5" height="50" preserveAspectRatio="xMidYMid meet" version="1.0"><path fill="#ffffff" d="M 55.128906 8.207031 C 55.128906 8.445312 54.972656 8.601562 54.890625 8.757812 C 53.320312 11.824219 51.75 14.808594 50.175781 17.875 C 50.019531 18.1875 50.019531 18.421875 50.097656 18.738281 C 50.882812 20.464844 51.59375 22.195312 52.457031 23.84375 C 53.085938 25.023438 53.871094 25.886719 54.972656 26.59375 C 55.207031 26.753906 55.363281 26.832031 55.597656 27.066406 C 54.65625 27.773438 53.714844 28.480469 52.847656 29.265625 C 52.691406 29.425781 52.535156 29.265625 52.378906 29.1875 C 50.570312 28.558594 49.234375 27.304688 48.527344 25.496094 C 48.132812 24.550781 47.664062 23.53125 47.269531 22.589844 C 47.191406 22.429688 47.113281 22.273438 47.035156 22.039062 C 45.855469 24.160156 44.753906 26.203125 43.65625 28.246094 C 43.496094 28.640625 43.261719 28.71875 42.871094 28.71875 C 40.117188 28.71875 37.367188 28.71875 34.695312 28.71875 C 34.382812 28.71875 34.226562 28.640625 34.066406 28.246094 C 33.675781 26.753906 33.28125 25.339844 32.890625 23.84375 C 32.8125 23.53125 32.730469 23.453125 32.417969 23.453125 C 30.6875 23.453125 28.960938 23.453125 27.230469 23.453125 C 26.917969 23.453125 26.761719 23.609375 26.761719 23.84375 C 26.367188 25.339844 25.972656 26.832031 25.660156 28.246094 C 25.582031 28.558594 25.425781 28.640625 25.109375 28.640625 C 23.929688 28.640625 22.832031 28.640625 21.652344 28.640625 C 21.179688 28.640625 21.179688 28.558594 21.257812 28.167969 C 22.753906 22.507812 24.167969 16.851562 25.660156 11.195312 C 25.894531 10.328125 26.132812 9.386719 26.367188 8.523438 C 26.445312 8.285156 26.523438 8.128906 26.839844 8.128906 C 29.117188 8.128906 31.394531 8.128906 33.675781 8.128906 C 34.066406 8.128906 34.066406 8.285156 34.148438 8.523438 C 35.246094 13.078125 36.347656 17.558594 37.445312 22.117188 C 37.917969 24.082031 38.390625 26.046875 38.863281 28.089844 C 38.863281 28.167969 38.941406 28.246094 38.941406 28.324219 C 39.097656 28.246094 39.097656 28.089844 39.175781 27.929688 C 40.746094 24.867188 42.320312 21.722656 43.96875 18.660156 C 44.125 18.34375 44.125 18.109375 44.046875 17.875 C 43.417969 16.378906 42.710938 14.886719 41.925781 13.394531 C 41.21875 12.058594 40.355469 11.035156 39.019531 10.25 C 38.863281 10.171875 38.78125 10.09375 38.546875 9.9375 C 38.78125 9.699219 39.019531 9.542969 39.332031 9.308594 C 39.804688 8.992188 40.277344 8.679688 40.667969 8.285156 C 41.296875 7.65625 41.847656 7.734375 42.554688 8.128906 C 43.96875 8.835938 45.070312 9.9375 45.699219 11.429688 C 46.167969 12.53125 46.640625 13.628906 47.113281 14.730469 C 47.269531 14.652344 47.347656 14.496094 47.425781 14.335938 C 48.371094 12.449219 49.390625 10.566406 50.335938 8.601562 C 50.492188 8.285156 50.648438 8.207031 50.964844 8.207031 C 52.21875 8.207031 53.714844 8.207031 55.128906 8.207031 Z M 29.824219 11.507812 C 29.746094 11.742188 29.667969 11.902344 29.667969 11.980469 C 29.117188 14.335938 28.488281 16.695312 27.9375 19.050781 C 27.703125 19.917969 27.703125 19.917969 28.566406 19.917969 C 29.667969 19.917969 30.769531 19.917969 31.867188 19.917969 C 31.238281 17.085938 30.53125 14.414062 29.824219 11.507812 Z M 29.824219 11.507812 " fill-opacity="1" fill-rule="nonzero"/><path fill="#ffffff" d="M 10.335938 17.402344 C 11.75 14.652344 13.164062 11.980469 14.421875 9.230469 C 14.816406 8.363281 15.207031 8.050781 16.230469 8.128906 C 17.410156 8.207031 18.585938 8.128906 19.765625 8.128906 C 20.082031 8.128906 20.160156 8.207031 20.160156 8.523438 C 20.160156 15.042969 20.160156 21.644531 20.160156 28.167969 C 20.160156 28.558594 20.003906 28.640625 19.6875 28.640625 C 18.429688 28.640625 17.171875 28.640625 15.914062 28.640625 C 15.523438 28.640625 15.445312 28.558594 15.445312 28.167969 C 15.445312 24.394531 15.445312 20.546875 15.445312 16.773438 C 15.445312 16.617188 15.445312 16.457031 15.445312 16.300781 C 15.445312 16.300781 15.367188 16.300781 15.367188 16.300781 C 15.207031 16.539062 15.128906 16.773438 14.972656 17.007812 C 13.953125 18.972656 12.929688 21.015625 11.988281 23.058594 C 11.828125 23.375 11.59375 23.53125 11.28125 23.53125 C 10.652344 23.53125 10.101562 23.53125 9.472656 23.53125 C 9.15625 23.53125 9 23.453125 8.84375 23.136719 C 7.742188 21.015625 6.644531 18.816406 5.621094 16.695312 C 5.542969 16.617188 5.542969 16.457031 5.386719 16.378906 C 5.386719 16.539062 5.386719 16.695312 5.386719 16.851562 C 5.386719 20.625 5.386719 24.472656 5.386719 28.246094 C 5.386719 28.640625 5.308594 28.796875 4.835938 28.796875 C 3.734375 28.796875 2.714844 28.796875 1.613281 28.796875 C 1.144531 28.71875 1.0625 28.640625 1.0625 28.324219 C 1.0625 21.722656 1.0625 15.203125 1.0625 8.601562 C 1.0625 8.285156 1.222656 8.207031 1.457031 8.207031 C 2.714844 8.207031 3.894531 8.207031 5.148438 8.207031 C 5.464844 8.207031 5.621094 8.285156 5.777344 8.601562 C 7.195312 11.429688 8.609375 14.179688 10.023438 17.007812 C 10.101562 17.085938 10.179688 17.246094 10.335938 17.402344 Z M 10.335938 17.402344 " fill-opacity="1" fill-rule="nonzero"/><path fill="#ffffff" d="M 102.75 18.816406 C 102.75 16.539062 102.828125 14.652344 103.457031 12.84375 C 104.476562 9.699219 106.753906 7.972656 110.054688 7.816406 C 111.15625 7.734375 112.257812 7.816406 113.355469 8.050781 C 115.714844 8.601562 117.207031 10.09375 118.070312 12.371094 C 118.542969 13.707031 118.777344 15.121094 118.855469 16.539062 C 119.015625 19.050781 118.9375 21.488281 118.230469 23.925781 C 117.285156 27.066406 114.929688 28.875 111.628906 29.03125 C 110.449219 29.109375 109.269531 29.03125 108.089844 28.71875 C 105.417969 27.929688 103.925781 25.96875 103.296875 23.375 C 102.90625 21.722656 102.75 20.074219 102.75 18.816406 Z M 113.984375 18.421875 C 113.984375 17.402344 113.984375 16.378906 113.90625 15.359375 C 113.75 14.257812 113.59375 13.078125 112.804688 12.214844 C 111.863281 11.035156 109.898438 11.035156 108.957031 12.214844 C 108.328125 12.921875 108.089844 13.785156 107.933594 14.652344 C 107.621094 16.773438 107.699219 18.972656 107.777344 21.171875 C 107.855469 22.195312 108.011719 23.136719 108.484375 24.003906 C 108.957031 24.945312 109.664062 25.496094 110.761719 25.496094 C 111.941406 25.496094 112.648438 24.945312 113.199219 24.003906 C 113.355469 23.6875 113.515625 23.296875 113.59375 22.980469 C 113.984375 21.488281 113.984375 19.917969 113.984375 18.421875 Z M 113.984375 18.421875 " fill-opacity="1" fill-rule="nonzero"/><path fill="#ffffff" d="M 65.34375 18.421875 C 65.34375 15.203125 65.34375 11.980469 65.34375 8.757812 C 65.34375 8.285156 65.5 8.207031 65.894531 8.207031 C 68.40625 8.207031 71 8.207031 73.515625 8.207031 C 74.300781 8.207031 75.085938 8.363281 75.875 8.601562 C 78.386719 9.386719 79.722656 11.035156 79.882812 13.628906 C 79.960938 14.652344 79.960938 15.59375 79.644531 16.617188 C 79.015625 18.972656 77.367188 20.230469 75.007812 20.625 C 73.59375 20.859375 72.179688 20.78125 70.765625 20.78125 C 70.292969 20.78125 70.136719 20.9375 70.136719 21.410156 C 70.136719 23.6875 70.136719 25.886719 70.136719 28.167969 C 70.136719 28.558594 70.058594 28.71875 69.585938 28.71875 C 68.328125 28.71875 67.074219 28.71875 65.816406 28.71875 C 65.34375 28.71875 65.1875 28.640625 65.1875 28.167969 C 65.421875 24.867188 65.34375 21.644531 65.34375 18.421875 Z M 70.292969 14.496094 C 70.292969 15.28125 70.292969 16.066406 70.292969 16.851562 C 70.292969 17.085938 70.371094 17.246094 70.609375 17.246094 C 71.160156 17.246094 71.789062 17.246094 72.335938 17.246094 C 73.910156 17.164062 74.695312 16.457031 74.851562 14.964844 C 74.929688 14.652344 74.929688 14.257812 74.851562 13.945312 C 74.695312 12.765625 74.144531 12.136719 72.964844 11.902344 C 72.179688 11.742188 71.394531 11.824219 70.6875 11.824219 C 70.371094 11.824219 70.214844 11.980469 70.292969 12.292969 C 70.292969 13 70.292969 13.785156 70.292969 14.496094 Z M 70.292969 14.496094 " fill-opacity="1" fill-rule="nonzero"/><path fill="#ffffff" d="M 100.941406 10.171875 C 100.941406 10.644531 100.941406 11.035156 100.941406 11.507812 C 100.941406 11.902344 100.863281 11.980469 100.46875 11.824219 C 99.132812 11.351562 97.71875 11.195312 96.304688 11.585938 C 95.046875 11.902344 94.417969 12.765625 94.574219 13.945312 C 94.652344 14.496094 94.96875 14.886719 95.363281 15.28125 C 96.148438 15.988281 97.167969 16.457031 98.035156 17.007812 C 99.054688 17.636719 99.917969 18.34375 100.625 19.367188 C 102.90625 22.980469 101.253906 27.460938 97.089844 28.640625 C 94.339844 29.425781 91.746094 29.03125 89.230469 27.695312 C 88.839844 27.460938 88.761719 27.304688 88.917969 26.910156 C 89.152344 26.046875 89.390625 25.261719 89.546875 24.394531 C 89.625 24.082031 89.703125 24.003906 90.019531 24.238281 C 91.117188 24.945312 92.375 25.417969 93.710938 25.339844 C 94.183594 25.339844 94.734375 25.261719 95.125 25.023438 C 96.382812 24.472656 96.777344 22.902344 95.832031 21.878906 C 95.363281 21.410156 94.8125 21.015625 94.261719 20.625 C 93.476562 20.074219 92.609375 19.679688 91.824219 19.050781 C 89.703125 17.402344 88.839844 15.28125 89.390625 12.6875 C 89.859375 10.171875 91.667969 8.835938 94.027344 8.207031 C 96.226562 7.578125 98.347656 7.734375 100.546875 8.285156 C 100.863281 8.363281 100.863281 8.523438 100.863281 8.757812 C 100.941406 9.230469 100.941406 9.699219 100.941406 10.171875 Z M 100.941406 10.171875 " fill-opacity="1" fill-rule="nonzero"/><path fill="#ffffff" d="M 56.933594 18.421875 C 56.933594 15.203125 56.933594 11.902344 56.933594 8.679688 C 56.933594 8.285156 57.015625 8.207031 57.40625 8.207031 C 58.742188 8.207031 60.078125 8.207031 61.414062 8.207031 C 61.730469 8.207031 61.886719 8.285156 61.886719 8.601562 C 61.886719 15.121094 61.886719 21.722656 61.886719 28.246094 C 61.886719 28.558594 61.808594 28.71875 61.492188 28.71875 C 60.15625 28.71875 58.742188 28.71875 57.40625 28.71875 C 57.015625 28.71875 57.015625 28.558594 57.015625 28.246094 C 56.933594 25.023438 56.933594 21.722656 56.933594 18.421875 Z M 56.933594 18.421875 " fill-opacity="1" fill-rule="nonzero"/><path fill="#ffffff" d="M 86.796875 18.5 C 86.796875 21.722656 86.796875 24.945312 86.796875 28.167969 C 86.796875 28.558594 86.71875 28.71875 86.246094 28.71875 C 84.910156 28.71875 83.574219 28.71875 82.316406 28.71875 C 82.003906 28.71875 81.84375 28.640625 81.84375 28.246094 C 81.84375 21.722656 81.84375 15.203125 81.84375 8.601562 C 81.84375 8.207031 82.003906 8.128906 82.316406 8.128906 C 83.652344 8.128906 84.988281 8.128906 86.246094 8.128906 C 86.640625 8.128906 86.796875 8.207031 86.796875 8.601562 C 86.796875 11.980469 86.796875 15.203125 86.796875 18.5 Z M 86.796875 18.5 " fill-opacity="1" fill-rule="nonzero"/></svg>